<svg width="14" height="12" viewBox="0 0 14 12" fill="none" xmlns="http://www.w3.org/2000/svg">
<path fill-rule="evenodd" clip-rule="evenodd" d="M10.22 1.33333H12.3333C13.0666 1.33333 13.6666 1.93333 13.6666 2.66667V10.6667C13.6666 11.4 13.0666 12 12.3333 12H1.66665C0.933313 12 0.333313 11.4 0.333313 10.6667V2.66667C0.333313 1.93333 0.933313 1.33333 1.66665 1.33333H3.77998L4.99998 0H8.99998L10.22 1.33333ZM1.66665 10.6667H12.3333V2.66667H9.63331L8.41331 1.33333H5.58665L4.36665 2.66667H1.66665V10.6667ZM6.99998 3.33333C5.15998 3.33333 3.66665 4.82667 3.66665 6.66667C3.66665 8.50667 5.15998 10 6.99998 10C8.83998 10 10.3333 8.50667 10.3333 6.66667C10.3333 4.82667 8.83998 3.33333 6.99998 3.33333ZM4.99998 6.66667C4.99998 7.76667 5.89998 8.66667 6.99998 8.66667C8.09998 8.66667 8.99998 7.76667 8.99998 6.66667C8.99998 5.56667 8.09998 4.66667 6.99998 4.66667C5.89998 4.66667 4.99998 5.56667 4.99998 6.66667Z" fill="#F9F9F9"/>
</svg>
