<svg width="33" height="33" viewBox="0 0 33 33" fill="none" xmlns="http://www.w3.org/2000/svg">
<g id="camera_24px">
<path id="icon/image/camera_24px" fill-rule="evenodd" clip-rule="evenodd" d="M19.7358 3.21024L19.6292 3.15655L19.6159 3.18339C18.6839 2.98206 17.7252 2.86127 16.7399 2.86127C9.38996 2.86127 3.4248 8.87431 3.4248 16.2832C3.4248 23.6922 9.38996 29.7052 16.7399 29.7052C24.0898 29.7052 30.0549 23.6922 30.0549 16.2832C30.0549 9.9078 25.6477 4.57928 19.7358 3.21024ZM26.6063 12.2566H15.9676L19.576 5.94831C22.7716 6.83416 25.368 9.19643 26.6063 12.2566ZM14.4363 12.2566L18.2045 5.65304C17.7252 5.58593 17.2325 5.54566 16.7398 5.54566C13.8372 5.54566 11.2008 6.72679 9.2834 8.63271L12.9051 14.941L14.4363 12.2566ZM8.35138 9.69306L12.1329 16.2832L13.6641 18.9676H6.43401C6.22097 18.1086 6.08782 17.2094 6.08782 16.2832C6.08782 13.8002 6.93998 11.5184 8.35138 9.69306ZM17.4989 20.3098H6.87344C8.11174 23.37 10.6949 25.7189 13.8905 26.6181L17.4989 20.3098ZM15.2752 26.9L20.5879 17.6254L24.2096 23.9338C22.2789 25.8397 19.6425 27.0208 16.7398 27.0208C16.2339 27.0208 15.7545 26.9671 15.2752 26.9ZM19.8024 13.5988L25.1284 22.8734C26.5398 21.048 27.3919 18.7663 27.3919 16.2832C27.3919 15.3571 27.2588 14.4578 27.0324 13.5988H19.8024Z" fill="#F9F9F9"/>
</g>
</svg>
