<svg width="19" height="22" viewBox="0 0 19 22" fill="none" xmlns="http://www.w3.org/2000/svg">
<path d="M14.25 0.0214844C14.2359 0.0214844 13.8012 0.0214844 12.9459 0.0214844C12.0906 0.0214844 11.1576 0.0179039 10.1468 0.0107422C9.13597 0.0035805 8.21001 0 7.36886 0C6.52771 0 6.10714 0 6.10714 0C5.38616 0 4.75354 0.282875 4.20926 0.848633C3.66499 1.41439 3.39286 2.04817 3.39286 2.75L2.60826 2.77148C1.88727 2.77148 1.27232 3.05078 0.763393 3.60938C0.254462 4.16797 0 4.79817 0 5.5V19.25C0 19.9518 0.272133 20.5856 0.816406 21.1514C1.36068 21.7171 1.9933 22 2.71429 22H12.8929C13.6138 22 14.2465 21.7171 14.7907 21.1514C15.335 20.5856 15.6071 19.9518 15.6071 19.25H16.2857C17.0067 19.25 17.6393 18.9671 18.1836 18.4014C18.7279 17.8356 19 17.2018 19 16.5V5.52148L14.25 0.0214844ZM12.8929 20.625H2.71429C2.36086 20.625 2.04632 20.4818 1.77065 20.1953C1.49498 19.9089 1.35714 19.5938 1.35714 19.25V5.5C1.35714 4.98437 1.54445 4.6263 1.91908 4.42578C2.29371 4.22526 2.78497 4.125 3.39286 4.125V16.5C3.39286 17.2018 3.66499 17.8356 4.20926 18.4014C4.75354 18.9671 5.38616 19.25 6.10714 19.25C6.10714 19.25 6.4959 19.25 7.27344 19.25C8.05097 19.25 8.92392 19.25 9.8923 19.25C10.8607 19.25 11.7796 19.25 12.649 19.25C13.5184 19.25 14.0521 19.25 14.25 19.25C14.25 19.6654 14.1263 19.9984 13.8789 20.249C13.6315 20.4997 13.3028 20.625 12.8929 20.625ZM14.25 14.4375H8.14286C7.95908 14.4375 7.80004 14.373 7.66574 14.2441C7.53143 14.1152 7.46429 13.9505 7.46429 13.75C7.46429 13.5638 7.53143 13.4027 7.66574 13.2666C7.80004 13.1305 7.95908 13.0625 8.14286 13.0625H14.25C14.4338 13.0625 14.5928 13.1305 14.7271 13.2666C14.8614 13.4027 14.9286 13.5638 14.9286 13.75C14.9286 13.9505 14.8614 14.1152 14.7271 14.2441C14.5928 14.373 14.4338 14.4375 14.25 14.4375ZM14.25 11.0215H8.14286C7.95908 11.0215 7.80004 10.9535 7.66574 10.8174C7.53143 10.6813 7.46429 10.5202 7.46429 10.334C7.46429 10.1335 7.53143 9.96875 7.66574 9.83984C7.80004 9.71094 7.95908 9.64648 8.14286 9.64648H14.25C14.4338 9.64648 14.5928 9.71094 14.7271 9.83984C14.8614 9.96875 14.9286 10.1335 14.9286 10.334C14.9286 10.5202 14.8614 10.6813 14.7271 10.8174C14.5928 10.9535 14.4338 11.0215 14.25 11.0215ZM15.6071 5.5C15.2396 5.5 14.9215 5.36035 14.6529 5.08105C14.3843 4.80176 14.25 4.48307 14.25 4.125C14.25 4.125 14.25 3.83854 14.25 3.26562C14.25 2.69271 14.25 2.06967 14.25 1.39648L17.6429 5.5H15.6071Z" fill="#1AACA8"/>
</svg>
