<svg xmlns="http://www.w3.org/2000/svg" width="42" height="30" viewBox="0 0 42 30">
    <path fill="#FFF" fill-rule="evenodd" d="M2.933 23.467c-.794 0-1.482.29-2.062.87C.29 24.919 0 25.607 0 26.4c0 .794.29 1.482.87 2.063.581.58 1.269.87 2.063.87.795 0 1.482-.29 2.063-.87.58-.581.87-1.269.87-2.063 0-.794-.29-1.482-.87-2.062-.58-.581-1.268-.871-2.063-.871zM13.2 4.4h26.4a1.41 1.41 0 0 0 1.031-.435c.29-.29.436-.634.436-1.032a1.41 1.41 0 0 0-.436-1.03 1.41 1.41 0 0 0-1.031-.436H13.2a1.41 1.41 0 0 0-1.031.435 1.41 1.41 0 0 0-.436 1.031c0 .398.145.741.436 1.032.29.29.634.435 1.031.435zM2.933 11.733c-.794 0-1.482.29-2.062.871-.58.58-.871 1.268-.871 2.063 0 .794.29 1.482.87 2.062.581.58 1.269.871 2.063.871.795 0 1.482-.29 2.063-.87.58-.581.87-1.269.87-2.063 0-.795-.29-1.482-.87-2.063-.58-.58-1.268-.87-2.063-.87zm36.667 13.2H13.2a1.41 1.41 0 0 0-1.031.436 1.41 1.41 0 0 0-.436 1.031c0 .397.145.741.436 1.031.29.29.634.436 1.031.436h26.4a1.41 1.41 0 0 0 1.031-.436c.29-.29.436-.634.436-1.031a1.41 1.41 0 0 0-.436-1.031 1.41 1.41 0 0 0-1.031-.436zm0-11.733H13.2a1.41 1.41 0 0 0-1.031.435 1.41 1.41 0 0 0-.436 1.032c0 .397.145.74.436 1.03.29.291.634.436 1.031.436h26.4a1.41 1.41 0 0 0 1.031-.435c.29-.29.436-.634.436-1.031a1.41 1.41 0 0 0-.436-1.032A1.41 1.41 0 0 0 39.6 13.2zM2.933 0C2.14 0 1.451.29.871.87.29 1.452 0 2.14 0 2.934c0 .795.29 1.482.87 2.063.581.58 1.269.87 2.063.87.795 0 1.482-.29 2.063-.87.58-.58.87-1.268.87-2.063 0-.794-.29-1.482-.87-2.062C4.416.29 3.728 0 2.933 0z"/>
</svg>
