<svg xmlns="http://www.w3.org/2000/svg" width="38" height="37" viewBox="0 0 38 37">
    <path fill="#FFF" fill-rule="evenodd" d="M36.691 34.122H18.37a1.34 1.34 0 0 0-.92.346c-.26.23-.389.503-.389.818 0 .315.13.587.389.818.259.23.565.345.92.345H36.69c.355 0 .661-.115.92-.345.26-.23.389-.503.389-.818 0-.315-.13-.588-.389-.818a1.34 1.34 0 0 0-.92-.346zM21.437 5.43h15.289c.345 0 .644-.12.896-.358.252-.239.378-.513.378-.824 0-.31-.126-.578-.378-.805a1.295 1.295 0 0 0-.896-.34H21.437c-.345 0-.643.113-.896.34-.252.227-.378.495-.378.805 0 .31.126.585.378.824.253.238.551.358.896.358zm-.907 7.182c.272-.244.409-.55.409-.916s-.137-.67-.41-.915L11.452.366a1.127 1.127 0 0 0-.47-.285A1.745 1.745 0 0 0 10.469 0c-.19 0-.374.027-.552.081-.177.055-.334.15-.47.285L.368 10.78c-.245.244-.368.55-.368.915 0 .367.123.672.368.916.273.27.586.406.94.406.355 0 .669-.135.941-.406l6.912-7.933V36.45h2.617V4.719l6.911 7.892c.246.27.553.406.92.406.369 0 .675-.135.92-.406zm16.152-1.754l-10.547.036c-.357 0-.666.107-.927.322-.261.215-.392.477-.392.788 0 .334.13.614.392.84.26.227.57.34.927.34l10.547-.035c.357 0 .666-.107.927-.322.26-.215.391-.49.391-.823 0-.31-.13-.58-.391-.806-.261-.227-.57-.34-.927-.34zm.01 15.51H18.37a1.34 1.34 0 0 0-.92.346c-.26.23-.389.503-.389.818 0 .315.13.587.389.818.259.23.565.345.92.345H36.69c.355 0 .661-.115.92-.345.26-.23.389-.503.389-.818 0-.315-.13-.588-.389-.818a1.34 1.34 0 0 0-.92-.346zm0-7.755H18.37c-.355 0-.661.11-.92.327a1.044 1.044 0 0 0-.389.837c0 .315.13.587.389.817.259.23.565.346.92.346H36.69c.355 0 .661-.115.92-.346.26-.23.389-.502.389-.817 0-.34-.13-.618-.389-.837a1.383 1.383 0 0 0-.92-.327z"/>
</svg>
