<svg xmlns="http://www.w3.org/2000/svg" viewBox="0 0 32.408 36.009">
  <defs>
    <style>
      .cls-1 {
        fill: #e5e5e3;
      }
    </style>
  </defs>
  <path id="ic_assignment_24px" class="cls-1" d="M31.807,4.6H24.281a5.38,5.38,0,0,0-10.154,0H6.6A3.611,3.611,0,0,0,3,8.2V33.408a3.611,3.611,0,0,0,3.6,3.6H31.807a3.611,3.611,0,0,0,3.6-3.6V8.2A3.611,3.611,0,0,0,31.807,4.6Zm-12.6,0a1.8,1.8,0,1,1-1.8,1.8A1.806,1.806,0,0,1,19.2,4.6Zm3.6,25.206H10.2v-3.6H22.8Zm5.4-7.2h-18V19h18Zm0-7.2h-18V11.8h18Z" transform="translate(-3 -1)"/>
</svg>
