<svg width="20" height="19" viewBox="0 0 20 19" fill="none" xmlns="http://www.w3.org/2000/svg">
<path fill-rule="evenodd" clip-rule="evenodd" d="M6.95652 4.34783H4.34783V6.95652H2.6087V4.34783H0V2.6087H2.6087V0H4.34783V2.6087H6.95652V4.34783ZM15.5045 4.34783H18.261C19.2175 4.34783 20.0001 5.13044 20.0001 6.08696V16.5217C20.0001 17.4783 19.2175 18.2609 18.261 18.2609H4.34795C3.39143 18.2609 2.60882 17.4783 2.60882 16.5217V8.69566H4.34795V16.5217H18.261V6.08696H14.7393L13.1479 4.34783H8.69577V2.6087H13.9132L15.5045 4.34783ZM11.3042 15.6522C8.90421 15.6522 6.95638 13.7044 6.95638 11.3044C6.95638 8.90435 8.90421 6.95653 11.3042 6.95653C13.7042 6.95653 15.652 8.90435 15.652 11.3044C15.652 13.7044 13.7042 15.6522 11.3042 15.6522ZM11.3043 8.69565C12.7391 8.69565 13.913 9.86956 13.913 11.3043C13.913 12.7391 12.7391 13.913 11.3043 13.913C9.8695 13.913 8.69559 12.7391 8.69559 11.3043C8.69559 9.86956 9.8695 8.69565 11.3043 8.69565Z" fill="#F9F9F9"/>
</svg>
