<svg xmlns="http://www.w3.org/2000/svg" viewBox="0 0 32.527 32.527">
  <defs>
    <style>
      .cls-1, .cls-4 {
        fill: #00b0ae;
      }

      .cls-2 {
        fill: none;
      }

      .cls-3, .cls-4 {
        stroke: none;
      }
    </style>
  </defs>
  <g id="Group_428" data-name="Group 428" transform="translate(-1593.819 1079.045) rotate(-45)">
    <path id="Subtraction_5" data-name="Subtraction 5" class="cls-1" d="M2033,18h-10V5a5,5,0,1,1,10,0V18Z" transform="translate(-138 369)"/>
    <g id="Subtraction_6" data-name="Subtraction 6" class="cls-2" transform="translate(3918 405) rotate(180)">
      <path class="cls-3" d="M2033,18h-10V5a5,5,0,1,1,10,0V18Z"/>
      <path class="cls-4" d="M 2032.000122070312 17 L 2032.000122070312 5.000400066375732 C 2032.000122070312 2.794569969177246 2030.20556640625 1 2027.999755859375 1 C 2025.79443359375 1 2024.000244140625 2.794569969177246 2024.000244140625 5.000400066375732 L 2024.000244140625 17 L 2032.000122070312 17 M 2033.000122070312 18 L 2032.999145507812 18 L 2023.000244140625 18 L 2023.000244140625 5.000400066375732 C 2023.000244140625 2.243170022964478 2025.243041992188 0 2027.999755859375 0 C 2030.756958007812 0 2033.000122070312 2.243170022964478 2033.000122070312 5.000400066375732 L 2033.000122070312 17.99900054931641 L 2033.000122070312 18 Z"/>
    </g>
  </g>
</svg>
