<svg width="22" height="17" viewBox="0 0 22 17" fill="none" xmlns="http://www.w3.org/2000/svg">
<mask id="path-1-outside-1" maskUnits="userSpaceOnUse" x="0" y="0.579102" width="22" height="16" fill="black">
<rect fill="white" y="0.579102" width="22" height="16"/>
<path fill-rule="evenodd" clip-rule="evenodd" d="M1 1.5791H21V15.5791H1V1.5791ZM4 12.5791H18V4.5791H4V12.5791Z"/>
</mask>
<path fill-rule="evenodd" clip-rule="evenodd" d="M1 1.5791H21V15.5791H1V1.5791ZM4 12.5791H18V4.5791H4V12.5791Z" fill="white"/>
<path d="M1 1.5791V0.579102H0V1.5791H1ZM21 1.5791H22V0.579102H21V1.5791ZM21 15.5791V16.5791H22V15.5791H21ZM1 15.5791H0V16.5791H1V15.5791ZM4 12.5791H3V13.5791H4V12.5791ZM18 12.5791V13.5791H19V12.5791H18ZM18 4.5791H19V3.5791H18V4.5791ZM4 4.5791V3.5791H3V4.5791H4ZM1 2.5791H21V0.579102H1V2.5791ZM20 1.5791V15.5791H22V1.5791H20ZM21 14.5791H1V16.5791H21V14.5791ZM2 15.5791V1.5791H0V15.5791H2ZM4 13.5791H18V11.5791H4V13.5791ZM19 12.5791V4.5791H17V12.5791H19ZM18 3.5791H4V5.5791H18V3.5791ZM3 4.5791V12.5791H5V4.5791H3Z" fill="black" fill-opacity="0.15" mask="url(#path-1-outside-1)"/>
</svg>
