<svg width="40" height="40" viewBox="0 0 40 40" fill="none" xmlns="http://www.w3.org/2000/svg">
<path fill-rule="evenodd" clip-rule="evenodd" d="M26 12H27C28.1 12 29 12.9 29 14V28C29 29.1 28.1 30 27 30H13C11.9 30 11 29.1 11 28V14C11 12.9 11.9 12 13 12H14V10H16V12H24V10H26V12ZM13 28H27V18H13V28ZM13 16V14H27V16H13ZM17.29 26.47L16.23 25.41L18.67 22.97L16.23 20.53L17.29 19.47L19.73 21.91L22.17 19.47L23.23 20.53L20.79 22.97L23.23 25.41L22.17 26.47L19.73 24.03L17.29 26.47Z" fill="#F9F9F9"/>
<path d="M33 26C29.136 26 26 29.136 26 33C26 36.864 29.136 40 33 40C36.864 40 40 36.864 40 33C40 29.136 36.864 26 33 26Z" fill="#F9F9F9"/>
<path d="M33 26C29.136 26 26 29.136 26 33C26 36.864 29.136 40 33 40C36.864 40 40 36.864 40 33C40 29.136 36.864 26 33 26ZM33.7 36.5H32.3V32.3H33.7V36.5ZM33.7 30.9H32.3V29.5H33.7V30.9Z" fill="#F9BE73"/>
</svg>
