<svg width="40" height="40" viewBox="0 0 40 40" fill="none" xmlns="http://www.w3.org/2000/svg">
<path d="M29.2813 21.3272L24.7292 14.811C23.9549 13.7047 22.7223 13.1133 21.4723 13.1133C20.6875 13.1133 19.8924 13.3464 19.198 13.8334C18.5139 14.3135 18.0278 14.9746 17.757 15.7052C17.6563 13.6421 15.9722 12 13.8889 12C11.7396 12 10 13.743 10 15.8965V23.6895C10 25.843 11.7396 27.586 13.8889 27.586C16.0382 27.586 17.7778 25.843 17.7778 23.6895V18.5023C17.8924 18.8015 18.0313 19.0972 18.2223 19.372L22.7778 25.8882C23.5487 26.9946 24.7813 27.586 26.0348 27.586C26.823 27.586 27.6147 27.3529 28.3091 26.8658C30.1042 25.6064 30.5383 23.1259 29.2813 21.3272ZM15.5556 19.793H12.2222V15.8965C12.2222 14.9746 12.9688 14.2266 13.8889 14.2266C14.809 14.2266 15.5556 14.9746 15.5556 15.8965V19.793ZM22.3195 21.3551L20.0417 18.0952C19.7743 17.7125 19.6702 17.2464 19.7535 16.7871C19.8334 16.3279 20.0903 15.9243 20.4723 15.6564C20.7674 15.4477 21.1146 15.3399 21.4723 15.3399C22.0452 15.3399 22.5799 15.6182 22.9063 16.0878L25.1841 19.3477L22.3195 21.3551V21.3551Z" fill="#F9F9F9"/>
<path d="M33 26C29.136 26 26 29.136 26 33C26 36.864 29.136 40 33 40C36.864 40 40 36.864 40 33C40 29.136 36.864 26 33 26Z" fill="#F9F9F9"/>
<path d="M33 26C29.136 26 26 29.136 26 33C26 36.864 29.136 40 33 40C36.864 40 40 36.864 40 33C40 29.136 36.864 26 33 26ZM33.7 36.5H32.3V32.3H33.7V36.5ZM33.7 30.9H32.3V29.5H33.7V30.9Z" fill="#F9BE73"/>
</svg>
