<svg width="40" height="40" viewBox="0 0 40 40" fill="none" xmlns="http://www.w3.org/2000/svg">
<path d="M14.9844 18.993H20V24.0047H14.9844V18.993ZM26.9844 27.9859V17.0258H13.0156V27.9859H26.9844ZM26.9844 12.0141C27.5156 12.0141 27.9844 12.217 28.3906 12.623C28.7969 13.0289 29 13.4973 29 14.0281V27.9859C29 28.5168 28.7969 28.9852 28.3906 29.3911C27.9844 29.797 27.5156 30 26.9844 30H13.0156C12.4531 30 11.9688 29.797 11.5625 29.3911C11.1875 28.9852 11 28.5168 11 27.9859V14.0281C11 13.4973 11.1875 13.0289 11.5625 12.623C11.9688 12.217 12.4531 12.0141 13.0156 12.0141H14V10H16.0156V12.0141H23.9844V10H26V12.0141H26.9844Z" fill="#F9F9F9"/>
<path d="M33 26C29.136 26 26 29.136 26 33C26 36.864 29.136 40 33 40C36.864 40 40 36.864 40 33C40 29.136 36.864 26 33 26Z" fill="#F9F9F9"/>
<path d="M33 26C29.136 26 26 29.136 26 33C26 36.864 29.136 40 33 40C36.864 40 40 36.864 40 33C40 29.136 36.864 26 33 26ZM33.7 36.5H32.3V32.3H33.7V36.5ZM33.7 30.9H32.3V29.5H33.7V30.9Z" fill="#F9BE73"/>
</svg>
