<svg width="40" height="40" viewBox="0 0 40 40" fill="none" xmlns="http://www.w3.org/2000/svg">
<path fill-rule="evenodd" clip-rule="evenodd" d="M26 12H27C28.1 12 29 12.9 29 14V28C29 29.1 28.1 30 27 30H13C11.89 30 11 29.1 11 28L11.01 14C11.01 12.9 11.89 12 13 12H14V10H16V12H24V10H26V12ZM13 28H27V18H13V28ZM27 16H13V14H27V16ZM20.6 26H19.4V23.6H17V22.4H19.4V20H20.6V22.4H23V23.6H20.6V26Z" fill="#F9F9F9"/>
<path d="M33 26C29.136 26 26 29.136 26 33C26 36.864 29.136 40 33 40C36.864 40 40 36.864 40 33C40 29.136 36.864 26 33 26Z" fill="#F9F9F9"/>
<path d="M33 26C29.136 26 26 29.136 26 33C26 36.864 29.136 40 33 40C36.864 40 40 36.864 40 33C40 29.136 36.864 26 33 26ZM33.7 36.5H32.3V32.3H33.7V36.5ZM33.7 30.9H32.3V29.5H33.7V30.9Z" fill="#F9BE73"/>
</svg>
