<svg width="40" height="40" viewBox="0 0 40 40" fill="none" xmlns="http://www.w3.org/2000/svg">
<path fill-rule="evenodd" clip-rule="evenodd" d="M27 12H26V10H24V12H16V10H14V12H13C11.89 12 11.01 12.9 11.01 14L11 28C11 29.1 11.89 30 13 30H27C28.1 30 29 29.1 29 28V14C29 12.9 28.1 12 27 12ZM27 28H13V18H27V28ZM13 16H27V14H13V16Z" fill="#F9F9F9"/>
<path fill-rule="evenodd" clip-rule="evenodd" d="M21.9772 19.1128L22.8872 20.0228C23.0389 20.1744 23.0389 20.4194 22.8872 20.5711L22.1756 21.2828L20.7172 19.8244L21.4289 19.1128C21.5028 19.0389 21.6 19 21.7011 19C21.8022 19 21.8994 19.035 21.9772 19.1128ZM16 24.5416V26H17.4583L21.7594 21.6989L20.3011 20.2405L16 24.5416ZM17.1356 25.2222H16.7778V24.8645L20.3011 21.3411L20.6589 21.6989L17.1356 25.2222Z" fill="#F9F9F9"/>
<path d="M33 26C29.136 26 26 29.136 26 33C26 36.864 29.136 40 33 40C36.864 40 40 36.864 40 33C40 29.136 36.864 26 33 26Z" fill="#F9F9F9"/>
<path d="M33 26C29.136 26 26 29.136 26 33C26 36.864 29.136 40 33 40C36.864 40 40 36.864 40 33C40 29.136 36.864 26 33 26ZM33.7 36.5H32.3V32.3H33.7V36.5ZM33.7 30.9H32.3V29.5H33.7V30.9Z" fill="#F9BE73"/>
</svg>
