<svg width="40" height="40" viewBox="0 0 40 40" fill="none" xmlns="http://www.w3.org/2000/svg">
<path d="M25.0156 18.0156V16H14.9844V18.0156H25.0156ZM25.0156 22V20.0312H14.9844V22H25.0156ZM22.0156 26.0312V24.0156H14.9844V26.0312H22.0156ZM20.7031 12.2969C20.5156 12.1094 20.2812 12.0156 20 12.0156C19.7188 12.0156 19.4844 12.1094 19.2969 12.2969C19.1094 12.4844 19.0156 12.7188 19.0156 13C19.0156 13.2812 19.1094 13.5312 19.2969 13.75C19.4844 13.9375 19.7188 14.0312 20 14.0312C20.2812 14.0312 20.5156 13.9375 20.7031 13.75C20.8906 13.5312 20.9844 13.2812 20.9844 13C20.9844 12.7188 20.8906 12.4844 20.7031 12.2969ZM26.9844 12.0156C27.5156 12.0156 27.9844 12.2188 28.3906 12.625C28.7969 13.0312 29 13.5 29 14.0312V28C29 28.5312 28.7969 29 28.3906 29.4062C27.9844 29.8125 27.5156 30.0156 26.9844 30.0156H13.0156C12.4844 30.0156 12.0156 29.8125 11.6094 29.4062C11.2031 29 11 28.5312 11 28V14.0312C11 13.5 11.2031 13.0312 11.6094 12.625C12.0156 12.2188 12.4844 12.0156 13.0156 12.0156H17.1875C17.4062 11.4219 17.7656 10.9375 18.2656 10.5625C18.7656 10.1875 19.3438 10 20 10C20.6562 10 21.2344 10.1875 21.7344 10.5625C22.2344 10.9375 22.5938 11.4219 22.8125 12.0156H26.9844Z" fill="#F9F9F9"/>
<path d="M33 26C29.136 26 26 29.136 26 33C26 36.864 29.136 40 33 40C36.864 40 40 36.864 40 33C40 29.136 36.864 26 33 26Z" fill="#F9F9F9"/>
<path d="M33 26C29.136 26 26 29.136 26 33C26 36.864 29.136 40 33 40C36.864 40 40 36.864 40 33C40 29.136 36.864 26 33 26ZM33.7 36.5H32.3V32.3H33.7V36.5ZM33.7 30.9H32.3V29.5H33.7V30.9Z" fill="#F9BE73"/>
</svg>
