<svg width="40" height="40" viewBox="0 0 40 40" fill="none" xmlns="http://www.w3.org/2000/svg">
<path d="M26.9844 28V17.0312H13.0156V28H26.9844ZM26.9844 12.0156C27.5156 12.0156 27.9844 12.2188 28.3906 12.625C28.7969 13.0312 29 13.5 29 14.0312V28C29 28.5312 28.7969 29 28.3906 29.4062C27.9844 29.8125 27.5156 30.0156 26.9844 30.0156H13.0156C12.4531 30.0156 11.9688 29.8125 11.5625 29.4062C11.1875 29 11 28.5312 11 28V14.0312C11 13.5 11.1875 13.0312 11.5625 12.625C11.9688 12.2188 12.4531 12.0156 13.0156 12.0156H14V10H16.0156V12.0156H23.9844V10H26V12.0156H26.9844ZM24.5469 20.0781L18.5938 26.0312L15.4062 22.8438L16.4844 21.7656L18.5938 23.875L23.4688 19L24.5469 20.0781Z" fill="#F9F9F9"/>
<path d="M33 26C29.136 26 26 29.136 26 33C26 36.864 29.136 40 33 40C36.864 40 40 36.864 40 33C40 29.136 36.864 26 33 26Z" fill="#F9F9F9"/>
<path d="M33 26C29.136 26 26 29.136 26 33C26 36.864 29.136 40 33 40C36.864 40 40 36.864 40 33C40 29.136 36.864 26 33 26ZM33.7 36.5H32.3V32.3H33.7V36.5ZM33.7 30.9H32.3V29.5H33.7V30.9Z" fill="#F9BE73"/>
</svg>
