<svg width="24" height="18" viewBox="0 0 24 18" fill="none" xmlns="http://www.w3.org/2000/svg">
<path d="M17.9 6.96825H11V12.3016H17.9V6.96825ZM23 15.2222V2.76C23 1.78222 22.1 1 21 1H3C1.9 1 1 1.78222 1 2.76V15.2222C1 16.2 1.9 17 3 17H21C22.1 17 23 16.2 23 15.2222ZM20.8 14.7143H3.2V3.28571H20.8V14.7143Z" fill="white"/>
<path d="M18.2889 6.96825V6.57937H17.9H11H10.6111V6.96825V12.3016V12.6905H11H17.9H18.2889V12.3016V6.96825ZM23.3889 15.2222V2.76C23.3889 1.52092 22.2651 0.611111 21 0.611111H3C1.73491 0.611111 0.611111 1.52092 0.611111 2.76V15.2222C0.611111 16.4566 1.72955 17.3889 3 17.3889H21C22.2705 17.3889 23.3889 16.4566 23.3889 15.2222ZM20.4111 14.3254H3.58889V3.6746H20.4111V14.3254Z" stroke="black" stroke-opacity="0.15" stroke-width="0.777778"/>
</svg>
