<svg width="52" height="32" viewBox="0 0 52 32" fill="none" xmlns="http://www.w3.org/2000/svg">
<path d="M19.3504 22.9341C19.3504 23.8235 18.6149 24.4849 17.708 24.4849C16.7897 24.4849 16.0542 23.8235 16.0542 22.9341C16.0542 22.0447 16.7897 21.3944 17.708 21.3944C18.6149 21.3944 19.3504 22.0447 19.3504 22.9341Z" fill="#3F4246"/>
<path d="M23.2715 11.7155C23.2715 13.7596 22.0331 14.735 20.867 15.6094C19.4457 16.667 18.916 17.0669 18.916 18.4234V19.0961H16.3781L16.3667 18.2179C16.2943 16.4615 17.3346 15.3777 18.6226 14.4547C19.7734 13.6139 20.4974 13.0608 20.4974 11.8575C20.4974 10.2954 19.2704 9.64517 17.9595 9.64517C16.2066 9.64517 15.334 10.7887 15.3225 12.2648H12.7847C12.7237 8.69223 15.5436 7.46649 18.0929 7.46649C20.7946 7.47023 23.2715 8.85292 23.2715 11.7155Z" fill="#3F4246"/>
<path d="M29.2352 0H6.82486C3.05994 0 0 3.00082 0 6.69298V25.307C0 28.9992 3.06375 32 6.82486 32H29.2352C33.0001 32 36.0601 28.9954 36.0601 25.307V6.69672C36.0601 3.00455 33.0001 0 29.2352 0Z" fill="white"/>
<path d="M17.4814 21.0938C16.6345 21.0938 15.9563 21.7052 15.9563 22.5416C15.9563 23.378 16.6345 24 17.4814 24C18.3178 24 18.996 23.378 18.996 22.5416C18.9996 21.7052 18.3213 21.0938 17.4814 21.0938ZM17.8434 8C15.4924 8 12.8919 9.15265 12.9482 12.5122H15.2886C15.2991 11.1206 16.1039 10.0488 17.7204 10.0488C18.9293 10.0488 20.0608 10.6602 20.0608 12.1291C20.0608 13.2607 19.3931 13.7808 18.3319 14.5715C17.1441 15.443 16.1847 16.4586 16.2515 18.1103L16.262 18.9361H18.6025V18.3035C18.6025 17.0279 19.0874 16.6519 20.4017 15.6574C21.477 14.8315 22.6191 13.9179 22.6191 11.9956C22.6156 9.30024 20.3314 8 17.8434 8Z" fill="#169A97"/>
<path d="M52 4.65634V27.3475C52 28.2929 51.4627 29.145 50.5976 29.5635C50.2394 29.7391 49.8546 29.8251 49.4735 29.8251C48.9324 29.8251 48.3989 29.6532 47.9492 29.3169L38.2169 22.0596C38.133 21.9961 38.0835 21.8989 38.0835 21.798V10.2021C38.0835 10.0974 38.133 10.004 38.2169 9.94047L47.9492 2.6832C48.719 2.11144 49.7326 2.01428 50.5976 2.43656C51.4627 2.85884 52 3.70714 52 4.65634Z" fill="white"/>
</svg>
